<svg width="32" height="20" viewBox="0 0 32 20" fill="none" xmlns="http://www.w3.org/2000/svg">
<path d="M14.2715 18.0814C10.2023 20.4317 4.30412 19.1709 1.85197 14.922C-0.600303 10.6729 1.25752 4.93212 5.32691 2.58173C6.45907 1.92782 7.15976 1.5343 7.6966 1.37597C7.94426 1.30294 8.10888 1.29646 8.23168 1.31746C8.3491 1.33755 8.48404 1.39216 8.65849 1.53355C9.04723 1.84862 9.50685 2.48349 10.2098 3.66698C10.5817 4.2932 10.9976 5.02925 11.4907 5.90182C11.9186 6.65911 12.4046 7.51922 12.9704 8.49963C13.5363 9.48004 14.0378 10.3312 14.4794 11.0806C14.9883 11.944 15.4175 12.6724 15.7736 13.3077C16.4467 14.5084 16.7665 15.2241 16.8449 15.7185C16.8801 15.9404 16.8599 16.0847 16.8185 16.1967C16.7753 16.3137 16.6873 16.4532 16.5002 16.6312C16.0947 17.0172 15.4036 17.4275 14.2715 18.0814ZM16.7708 1.91784C20.8405 -0.431776 26.7384 0.829986 29.1898 5.07934C31.6414 9.3289 29.7826 15.0693 25.7128 17.419C24.5805 18.0727 23.8798 18.4661 23.3429 18.6244C23.0952 18.6974 22.9306 18.7038 22.8078 18.6828C22.6904 18.6627 22.5554 18.6081 22.381 18.4666C21.9923 18.1515 21.5328 17.5166 20.8301 16.3329C20.4583 15.7067 20.0425 14.9706 19.5496 14.0979C19.1218 13.3406 18.6359 12.4803 18.0703 11.4998C17.5046 10.5193 17.0032 9.66807 16.5617 8.9186C16.053 8.05507 15.6239 7.32665 15.2679 6.69126C14.595 5.49044 14.2754 4.77471 14.197 4.28029C14.1619 4.05838 14.1821 3.91404 14.2235 3.80212C14.2668 3.68511 14.3548 3.54566 14.5419 3.36763C14.9475 2.98173 15.6386 2.57155 16.7708 1.91784Z" stroke="#9595B4" stroke-width="1.5"/>
</svg>
