<svg height="20" viewBox="0 0 101 20" fill="none" xmlns="http://www.w3.org/2000/svg">
<path d="M1.20238 15.2969C3.87953 19.9357 10.2504 21.27 14.6466 18.7308C19.0428 16.1917 18.43 16.4592 13.62 8.12474C8.81001 -0.209743 9.348 -0.606879 4.9518 1.93227C0.555602 4.47143 -1.47477 10.6581 1.20238 15.2969Z" fill="#9595B4"/>
<path d="M29.8395 4.70456C27.1631 0.0653071 20.7925 -1.27008 16.3958 1.26832C11.9992 3.80672 12.612 3.5393 17.4206 11.8746C22.2292 20.2099 21.6911 20.6069 26.0878 18.0686C30.4844 15.5302 32.5158 9.34382 29.8395 4.70456Z" fill="#9595B4"/>
<path d="M42.8706 16.5H38.0318V3.40909H42.8642C44.198 3.40909 45.3464 3.67116 46.3095 4.19531C47.2768 4.7152 48.0225 5.4652 48.5467 6.44531C49.0708 7.42116 49.3329 8.58878 49.3329 9.94815C49.3329 11.3118 49.0708 12.4837 48.5467 13.4638C48.0268 14.4439 47.2832 15.196 46.3159 15.7202C45.3485 16.2401 44.2001 16.5 42.8706 16.5ZM41.1958 13.8026H42.7491C43.4821 13.8026 44.1021 13.679 44.6092 13.4318C45.1206 13.1804 45.5062 12.7734 45.7662 12.2109C46.0304 11.6442 46.1625 10.8899 46.1625 9.94815C46.1625 9.00639 46.0304 8.25639 45.7662 7.69815C45.502 7.13565 45.112 6.73082 44.5964 6.48366C44.085 6.23224 43.4544 6.10653 42.7044 6.10653H41.1958V13.8026ZM62.816 9.95455C62.816 11.3949 62.5391 12.6158 61.9851 13.6172C61.4311 14.6186 60.6811 15.3793 59.7351 15.8991C58.7933 16.419 57.7365 16.679 56.5646 16.679C55.3885 16.679 54.3295 16.4169 53.3878 15.8928C52.446 15.3686 51.6981 14.608 51.1442 13.6108C50.5945 12.6094 50.3196 11.3906 50.3196 9.95455C50.3196 8.5142 50.5945 7.29332 51.1442 6.2919C51.6981 5.29048 52.446 4.52983 53.3878 4.00994C54.3295 3.49006 55.3885 3.23011 56.5646 3.23011C57.7365 3.23011 58.7933 3.49006 59.7351 4.00994C60.6811 4.52983 61.4311 5.29048 61.9851 6.2919C62.5391 7.29332 62.816 8.5142 62.816 9.95455ZM59.5817 9.95455C59.5817 9.10227 59.4602 8.3821 59.2173 7.79403C58.9787 7.20597 58.6335 6.76065 58.1818 6.4581C57.7344 6.15554 57.1953 6.00426 56.5646 6.00426C55.9382 6.00426 55.3991 6.15554 54.9474 6.4581C54.4957 6.76065 54.1484 7.20597 53.9055 7.79403C53.6669 8.3821 53.5476 9.10227 53.5476 9.95455C53.5476 10.8068 53.6669 11.527 53.9055 12.1151C54.1484 12.7031 54.4957 13.1484 54.9474 13.451C55.3991 13.7536 55.9382 13.9048 56.5646 13.9048C57.1953 13.9048 57.7344 13.7536 58.1818 13.451C58.6335 13.1484 58.9787 12.7031 59.2173 12.1151C59.4602 11.527 59.5817 10.8068 59.5817 9.95455ZM75.0847 3.40909V16.5H72.4L67.1905 8.9446H67.1074V16.5H63.9433V3.40909H66.6664L71.8183 10.9517H71.927V3.40909H75.0847ZM76.3542 16.5V3.40909H85.482V5.97869H79.5183V8.66335H85.0154V11.2393H79.5183V13.9304H85.482V16.5H76.3542ZM89.946 3.40909L92.3366 7.54474H92.4389L94.8551 3.40909H98.3963L94.446 9.95455L98.5241 16.5H94.8934L92.4389 12.3196H92.3366L89.8821 16.5H86.277L90.3359 9.95455L86.3792 3.40909H89.946Z" fill="#9595B4"/>
</svg>
